<?xml version="1.0" standalone="no"?>
<!DOCTYPE svg PUBLIC "-//W3C//DTD SVG 20010904//EN"
 "http://www.w3.org/TR/2001/REC-SVG-20010904/DTD/svg10.dtd">
<svg version="1.0" xmlns="http://www.w3.org/2000/svg"
 width="1024.000000pt" height="1024.000000pt" viewBox="0 0 1024.000000 1024.000000"
 preserveAspectRatio="xMidYMid meet">
<metadata>
Created by potrace 1.14, written by Peter Selinger 2001-2017
</metadata>
<g transform="translate(0.000000,1024.000000) scale(0.100000,-0.100000)"
fill="#000000" stroke="none">
<path d="M0 5120 l0 -5120 5120 0 5120 0 0 5120 0 5120 -5120 0 -5120 0 0
-5120z m7047 4810 c12 -91 29 -221 38 -290 9 -69 25 -190 35 -270 36 -264 50
-373 70 -530 11 -85 27 -204 35 -265 28 -210 54 -411 70 -535 9 -69 20 -154
25 -189 5 -35 7 -68 4 -72 -2 -5 -19 -12 -37 -18 -18 -5 -72 -21 -122 -35
-403 -119 -851 -104 -1225 41 -36 14 -130 55 -209 90 -263 118 -397 147 -645
140 -226 -7 -346 -37 -581 -146 -115 -54 -241 -103 -330 -130 -344 -102 -736
-100 -1090 5 -49 14 -104 30 -122 35 -18 6 -35 13 -37 18 -3 4 -1 37 4 72 5
35 16 120 25 189 16 128 44 338 70 535 8 61 24 182 35 270 12 88 27 207 35
265 8 58 24 177 35 265 12 88 27 207 35 265 8 58 24 179 35 270 12 91 23 171
25 178 4 10 389 12 1902 10 l1898 -3 22 -165z m-4050 -2312 c543 -430 746
-734 788 -1183 25 -278 145 -521 356 -727 112 -109 294 -240 429 -309 84 -42
122 -78 156 -147 l29 -57 -1 -350 c-1 -366 -16 -577 -65 -904 -81 -540 -231
-1075 -449 -1600 -128 -310 -207 -446 -395 -686 -138 -177 -168 -222 -231
-350 -73 -151 -120 -307 -149 -500 -17 -118 -35 -379 -35 -522 l0 -103 -751 0
-752 0 7 73 c4 39 13 117 21 172 8 55 23 172 35 260 11 88 27 210 35 270 8 61
24 180 35 265 11 85 27 205 35 265 8 61 24 182 35 270 12 88 28 207 35 265 8
58 31 229 50 380 19 151 42 325 50 385 25 191 55 416 70 535 9 63 24 183 35
265 11 83 27 202 35 265 9 63 24 180 35 260 10 80 26 199 34 265 23 177 54
414 71 545 9 63 22 165 30 225 8 61 23 178 34 260 11 83 27 206 36 275 9 69
25 188 35 265 10 77 26 196 35 265 9 69 25 193 36 275 11 83 26 200 34 260 14
105 38 289 70 530 8 61 21 166 30 235 17 137 23 170 30 170 2 0 39 -28 82 -62z
m4367 -103 c9 -71 23 -179 31 -240 22 -165 54 -406 70 -530 8 -60 23 -177 34
-260 11 -82 27 -206 36 -275 9 -69 25 -190 35 -270 11 -80 26 -197 35 -260 8
-63 24 -185 35 -270 11 -85 27 -204 35 -265 8 -60 21 -162 30 -225 17 -131 48
-368 71 -545 8 -66 24 -185 34 -265 11 -80 26 -197 35 -260 8 -63 24 -182 35
-265 11 -82 26 -202 35 -265 8 -63 23 -182 34 -265 11 -82 27 -204 36 -270 59
-460 86 -665 99 -765 32 -242 57 -429 71 -535 8 -60 24 -180 35 -265 11 -85
27 -204 35 -265 8 -60 24 -182 35 -270 12 -88 27 -205 35 -260 8 -55 17 -133
21 -172 l7 -73 -752 0 -751 0 0 103 c0 233 -28 524 -67 687 -61 263 -144 425
-348 685 -145 184 -208 281 -280 431 -236 486 -435 1113 -539 1694 -63 355
-90 668 -90 1070 l-1 345 29 57 c31 63 80 112 134 135 88 37 288 175 416 287
133 117 263 303 325 466 28 72 58 208 66 295 42 448 247 757 790 1184 70 56
80 61 86 45 4 -11 15 -77 23 -149z m-3014 -1362 c205 -112 266 -144 402 -213
81 -41 148 -78 148 -81 0 -13 -127 -33 -200 -33 -206 2 -329 94 -503 376 -28
44 -20 49 31 20 26 -16 81 -47 122 -69z m1704 50 c-76 -122 -116 -177 -173
-234 -101 -101 -196 -141 -336 -142 -76 0 -195 19 -195 32 0 3 64 38 143 78
180 91 419 219 527 283 50 30 60 25 34 -17z"/>
</g>
</svg>
